<?xml version="1.0" encoding="UTF-8" standalone="no"?>
<svg
   height="28.787001"
   viewBox="0 -960 1143.56 1151.48"
   width="28.589001"
   fill="#fbe6a3"
   version="1.1"
   id="svg1"
   sodipodi:docname="8.casetteacqua.svg"
   inkscape:version="1.4.4 (dcaf3e7, 2026-05-05)"
   xml:space="preserve"
   xmlns:inkscape="http://www.inkscape.org/namespaces/inkscape"
   xmlns:sodipodi="http://sodipodi.sourceforge.net/DTD/sodipodi-0.dtd"
   xmlns="http://www.w3.org/2000/svg"
   xmlns:svg="http://www.w3.org/2000/svg"><defs
     id="defs1" /><sodipodi:namedview
     id="namedview1"
     pagecolor="#ffffff"
     bordercolor="#000000"
     borderopacity="0.25"
     inkscape:showpageshadow="2"
     inkscape:pageopacity="0.0"
     inkscape:pagecheckerboard="0"
     inkscape:deskcolor="#d1d1d1"
     showgrid="false"
     inkscape:zoom="17.729167"
     inkscape:cx="14.157462"
     inkscape:cy="18.528789"
     inkscape:window-width="1920"
     inkscape:window-height="1111"
     inkscape:window-x="-9"
     inkscape:window-y="-9"
     inkscape:window-maximized="1"
     inkscape:current-layer="g5" /><g
     id="g5"
     transform="translate(71.788452,75.736755)"><ellipse
       style="fill:#009cef;fill-opacity:1;stroke:#ffffff;stroke-width:60;stroke-dasharray:none;stroke-opacity:1"
       id="path3"
       ry="543.73676"
       rx="539.78845"
       cy="-459.99677"
       cx="499.99155" /><g
       style="fill:#ffffff"
       id="g7"
       transform="translate(19.491547,-1.2126865)"><path
         d="M 280,-240 H 680 V -587 L 480,-740 280,-587 Z m -80,80 v -366 l -112,86 -47,-63 439,-337 440,336 -48,64 -112,-86 v 366 z M 536.5,-343.5 Q 560,-367 560,-400 q 0,-27 -15,-57.5 -15,-30.5 -65,-102.5 -50,72 -65,102.5 -15,30.5 -15,57.5 0,33 23.5,56.5 23.5,23.5 56.5,23.5 33,0 56.5,-23.5 z M 480,-400 Z"
         id="path1" /></g></g></svg>
